<svg xmlns="http://www.w3.org/2000/svg" viewBox="0 0 32 32"><defs><style>.a{fill:#8e4a2c;}</style></defs><path class="a" d="M32,5V27a5.006,5.006,0,0,1-5,5H14.437a5.006,5.006,0,0,1-5-5V24.5a1.25,1.25,0,1,1,2.5,0V27a2.5,2.5,0,0,0,2.5,2.5H27A2.5,2.5,0,0,0,29.5,27V5A2.5,2.5,0,0,0,27,2.5H14.437a2.5,2.5,0,0,0-2.5,2.5V7.5a1.25,1.25,0,1,1-2.5,0V5a5.006,5.006,0,0,1,5-5H27A5.006,5.006,0,0,1,32,5ZM14.12,19.238a1.25,1.25,0,0,0,1.761,1.775l2.822-2.8a3.115,3.115,0,0,0,0-4.426l-2.822-2.8a1.25,1.25,0,1,0-1.761,1.775l2,1.988H1.25a1.25,1.25,0,0,0,0,2.5H16.123Zm0,0"/></svg>