<svg xmlns="http://www.w3.org/2000/svg" xmlns:xlink="http://www.w3.org/1999/xlink" width="684" height="622" viewBox="0 0 684 622"><defs><style>.a{fill:#fff;stroke:#707070;}.b{opacity:0.136;clip-path:url(#a);}.c{fill:none;}.d{fill:#27475e;}</style><clipPath id="a"><rect class="a" width="684" height="622" transform="translate(0 2560)"/></clipPath></defs><g class="b" transform="translate(0 -2560)"><g transform="translate(280.856 2864.23)"><g transform="translate(-497.082 -370.27)"><path class="c" d="M52.4,114.3Z" transform="translate(228.513 497.288)"/><path class="c" d="M39.4,111.6Z" transform="translate(171.954 485.541)"/><path class="c" d="M31.8,107.6Z" transform="translate(138.888 468.138)"/><path class="c" d="M33.37,56.305,32.3,54.7Z" transform="translate(141.063 237.984)"/><path class="c" d="M76.685,113.275,41.37,110.6v1.07l-1.07,4.281L80.965,119.7A19.8,19.8,0,0,1,76.685,113.275Z" transform="translate(175.869 481.19)"/><path class="c" d="M66.116,117.07a16.587,16.587,0,0,1-4.816,4.816l55.112,9.631v-8.026h0L66.651,116Z" transform="translate(267.234 504.684)"/><path class="c" d="M58.216,114.6l-1.07,2.14a14.448,14.448,0,0,1-3.745,3.745l35.315,5.886h2.14v-6.956Z" transform="translate(232.864 498.593)"/><path class="d" d="M101.2,103.7c0,27.824,19.8,50.3,44.411,50.3s44.411-22.473,44.411-50.3-19.8-50.3-44.411-50.3S101.2,75.873,101.2,103.7Zm81.331,0c0,23.008-16.587,41.736-36.92,41.736a33.175,33.175,0,0,1-14.447-3.21l37.455-28.894L146.146,94.066l16.587-27.289A42.806,42.806,0,0,1,182.531,103.7Zm-59.393-9.631,22.473,18.728-16.587,27.824a42.271,42.271,0,0,1-20.333-37.455c0-23.008,16.587-41.736,36.92-41.736a33.175,33.175,0,0,1,14.982,3.746Z" transform="translate(440.828 232.329)"/><path class="d" d="M895.076,686.5l-98.988-15.517-67.954-9.631L749,623.894l-40.13-85.612h33.71V532.4a31.569,31.569,0,0,0,18.727-29.429,32.1,32.1,0,0,0-10.7-24.078,27.823,27.823,0,0,0-13.377-4.281,25.148,25.148,0,0,0-19.263,8.026,26.752,26.752,0,0,0-5.351,9.1,28.356,28.356,0,0,0-1.605,5.351,6.789,6.789,0,0,1-.535,3.21,23.51,23.51,0,0,0,0,2.675,33.175,33.175,0,0,0,8.561,21.938,27.288,27.288,0,0,1-16.052-21.4,29.937,29.937,0,0,1-.535-3.746q0-1.605,0-3.21a36.917,36.917,0,0,1,1.07-5.886H698.7a12.306,12.306,0,0,0-9.631,1.605,13.912,13.912,0,0,0-3.21,19.263,16.052,16.052,0,0,1,.535-23.008,18.192,18.192,0,0,1,12.307-4.816l8.026-1.07,4.281-5.886,1.605-1.605H698.169a57.785,57.785,0,0,0,1.605-13.377,47.087,47.087,0,0,0-16.052-37.455h-4.816c-8.026,0-14.982,5.351-22.473,12.842a24.614,24.614,0,0,1,6.956-13.912l4.28-3.21-55.647,5.886c39.6-18.728,60.463-66.884,46.016-113.435s-48.692-69.024-88.822-69.024a82.4,82.4,0,0,0-16.587,2.14V220.45c10.166-2.675,16.587-6.956,16.587-12.307s-4.816-8.561-12.842-11.236l-3.21-1.07a4.138,4.138,0,0,0-.535-4.816l-1.605-1.605a58.858,58.858,0,0,0,14.447-14.447,65.814,65.814,0,0,0,10.7-27.289,46.552,46.552,0,0,1-4.281,31.034l-2.675,4.281c33.71-19.8,58.323-52.972,49.762-90.427a59.932,59.932,0,0,0-4.281-10.7,58.859,58.859,0,0,0-11.771-14.982l-7.491-6.421a62.068,62.068,0,0,0-57.253-6.421,58.858,58.858,0,0,1,30.5-9.1,61.533,61.533,0,0,1,31.034,8.026h.535c-9.631-27.824-40.13-48.156-76.515-48.156A90.962,90.962,0,0,0,482,14.982l-4.816,3.21-1.605,1.07h-.535a66.349,66.349,0,0,0-27.289,48.156,59.394,59.394,0,0,1,7.491-28.359h0a80.262,80.262,0,0,1,17.122-21.4h0A66.349,66.349,0,0,0,427.958,0a70.094,70.094,0,0,0-44.411,17.657A74.914,74.914,0,0,0,368.565,35.85l-3.746,6.956a76.515,76.515,0,0,0-6.956,26.754,78.656,78.656,0,0,1,3.21-28.359,55.112,55.112,0,0,0-36.385,12.307,57.788,57.788,0,0,0-12.307,13.912l-3.21,5.886a61,61,0,0,0-5.886,20.868,62.067,62.067,0,0,1,1.605-20.333l1.07-3.21a79.191,79.191,0,0,0-40.13,13.377,74.91,74.91,0,0,0-33.71,65.814v2.14a77.581,77.581,0,0,0,1.605,12.842A80.8,80.8,0,0,0,247.638,193.7,78.656,78.656,0,0,0,257.8,204.933a80.254,80.254,0,0,1-10.7-9.631,77.05,77.05,0,0,1-17.657-29.429l-1.07-4.281a84.54,84.54,0,0,1-2.14-8.561v0A63.139,63.139,0,0,0,184.5,228.476l1.605,4.816a59.928,59.928,0,0,0,10.166,16.587l1.605,1.605h0a62.6,62.6,0,0,0,43.341,21.4,64.209,64.209,0,0,1-44.946-15.517l-1.605-1.07h0a65.278,65.278,0,0,1-12.842-16.587A47.086,47.086,0,0,0,171.658,288.4l2.14,4.281,1.07,1.605,3.21,4.816,1.605,2.14a47.086,47.086,0,0,0,29.429,15.517h.535a47.625,47.625,0,0,1-12.307-1.605,49.226,49.226,0,0,1-20.868-10.7c-30.5,101.664,32.1,80.261,79.191,31.569a61,61,0,0,0,53.507-33.71l-3.745-1.605-9.631-5.886-3.21-2.675,18.728,4.816,4.816,1.07h14.447a78.119,78.119,0,0,0,15.517-3.21,36.385,36.385,0,0,0,14.982-6.421,79.191,79.191,0,0,0,35.315-41.2h-10.7a65.278,65.278,0,0,1-14.447-2.14,60.464,60.464,0,0,1-22.473-11.236l-3.21-2.675a121.464,121.464,0,0,0,27.289,6.421,98.98,98.98,0,0,0,17.122,0l9.1-1.07h.535a94.708,94.708,0,0,0,25.683-8.561l5.886-3.21a79.189,79.189,0,0,0,21.4-26.219h7.491l5.886-3.746,11.771-3.745,5.886-1.07,17.122-1.605a123.067,123.067,0,0,1,43.876,5.886h-.535a120.926,120.926,0,0,0-42.806-1.07l-5.886,1.07h-2.14l-13.377,3.21-2.675,1.07-6.956,3.21-3.21,2.14a6.421,6.421,0,0,0-1.07,3.746c0,4.816,5.351,8.561,13.377,11.236l3.21-1.605,9.631-3.21a97.378,97.378,0,0,1,19.263-2.14,105.41,105.41,0,0,1,37.455,5.886,103.269,103.269,0,0,0-36.92-1.605,93.636,93.636,0,0,0-18.192,3.746l-8.026,3.745-3.21,2.675v55.112L406.02,328c-2.14-6.421-17.122-9.1-31.569-9.1s-32.1,3.21-32.1,10.7,2.14,4.816,5.886,6.421l3.21-2.675,5.886-2.14,12.307-1.605a79.727,79.727,0,0,1,24.078,2.14,79.191,79.191,0,0,0-23.543,0l-11.236,2.675c-3.21,1.07-6.421,3.21-6.956,4.816v3.745h0v18.728l-3.745-14.447H329.5a30.5,30.5,0,0,0-17.657,7.491,31.035,31.035,0,0,0-10.166,17.122c-1.07,6.956-1.07,14.447-1.605,21.4-.535-7.491-1.07-14.447-1.07-21.938a32.1,32.1,0,0,1,5.351-14.982l-5.351,2.675a67.96,67.96,0,0,0-11.772,7.491,65.817,65.817,0,0,0-9.631,9.631,52.972,52.972,0,0,0-6.956,11.237l-2.14,95.243-2.14-91.5-28.359,18.728L266.9,385.252a57.251,57.251,0,0,1,7.491-12.307,71.162,71.162,0,0,1,10.166-10.7,73.3,73.3,0,0,1,11.772-8.026c-52.437,10.166-73.84,58.858-73.84,59.393l-2.675,8.561L163.1,466.583h0c-9.1,6.956-18.728,13.377-28.359,19.8a397.036,397.036,0,0,1-36.385,20.333,246.669,246.669,0,0,1-79.726,25.148,249.875,249.875,0,0,0,82.4-18.728,404.467,404.467,0,0,0,38.525-17.657l5.351-3.21,18.192-10.7L176.474,473l3.21-2.14L221.42,442.5a362.77,362.77,0,0,1-39.06,33.71L163.1,489.591V534c-22.473,4.816-45.481,9.1-68.489,12.307a451.064,451.064,0,0,1-77.05,5.351,455.352,455.352,0,0,0,77.586,1.605c22.473-1.07,44.946-3.21,67.954-6.421h0l9.631-1.605c17.122-2.675,34.245-5.351,50.832-9.1-19.8,6.421-40.13,11.772-61,17.122V575.2l-66.884-3.746c-32.1-1.07-63.674-1.605-95.778,0,31.569,1.07,63.674,3.746,95.243,7.491s51.9,6.421,77.585,10.7c1.605,4.281,3.745,7.491,6.956,7.491s4.816-2.14,5.886-5.886h0v-1.07h0v-1.07a57.253,57.253,0,0,0,1.605-8.561v-3.745a42.27,42.27,0,0,0-2.14-17.122,43.34,43.34,0,0,1,4.281,17.122v8.026a16.507,16.507,0,0,1-.535,4.816v1.605h0V588.58H195.2a25.683,25.683,0,0,0,2.14,5.886,6.827,6.827,0,0,0,11.772,1.605h.535l2.14-4.816h0a64.212,64.212,0,0,0,2.14-11.237v-1.07a56.719,56.719,0,0,0-2.14-22.473,57.788,57.788,0,0,1,4.816,23.008v1.07a35.325,35.325,0,0,1-.535,7.491v3.746l35.315,2.675a19.8,19.8,0,0,0,4.281,6.421L215,597.141v1.07L262.62,605.7l5.351,2.675h0l11.772,2.675h0l2.14-1.605h.535l2.675-4.281v-.535a67.422,67.422,0,0,0,4.281-11.237,136.977,136.977,0,0,0,4.816-25.148h.535a138.05,138.05,0,0,1,0,26.219,77.6,77.6,0,0,1-2.14,11.237v2.675l-1.07,2.675-1.07,2.14,32.639,5.351h0c.535.535,2.14-.535,3.745-2.14h0a28.358,28.358,0,0,0,3.746-5.886v-1.07A80.785,80.785,0,0,0,335.925,595a159.978,159.978,0,0,0,4.816-26.754h1.07a163.732,163.732,0,0,1-1.07,27.824,92.561,92.561,0,0,1-3.21,13.912l-1.07,2.675-1.605,4.281-1.605,2.675,49.762,7.491a9.631,9.631,0,0,0,5.886-2.14,27.824,27.824,0,0,0,6.956-7.491V616.4a81.332,81.332,0,0,0,8.026-17.657,165.337,165.337,0,0,0,7.491-41.736,168.548,168.548,0,0,1-2.675,43.341,92.568,92.568,0,0,1-5.351,17.122l-1.605,3.745-3.21,5.351-2.14,2.675,66.349,10.166,6.956,1.07h0a7.491,7.491,0,0,0,5.886-2.14l3.745-3.745,3.746-6.421,4.281-7.491a116.646,116.646,0,0,0,6.421-31.034,118.787,118.787,0,0,1-1.605,32.639l-1.605,6.956a51.906,51.906,0,0,1-3.745,9.1l-1.07,1.605-2.675,3.745,20.868,3.746L714.221,688.1l8.561-15.517,71.7,9.1,99.523,11.772,100.059,10.7ZM289.909,120.926a51.367,51.367,0,0,0-9.631,18.192,49.227,49.227,0,0,0-1.605,16.052,11.782,11.782,0,0,0,.535,4.281h0a58.321,58.321,0,0,0,6.956,19.8,41.735,41.735,0,0,1-10.7-21.4h0a43.877,43.877,0,0,1,1.07-19.263,43.341,43.341,0,0,1,29.964-30.5,56.718,56.718,0,0,0-16.587,12.842Zm109.69-3.21-3.746-4.281a46.016,46.016,0,0,1-10.166-23.008,51.9,51.9,0,0,1-.535-5.886,44.948,44.948,0,0,1,4.281-19.263,43.876,43.876,0,0,1,8.561-11.772,41.2,41.2,0,0,1,8.026-6.421L399.6,55.112a49.226,49.226,0,0,0-9.1,29.964,44.926,44.926,0,0,0,.535,4.816,49.227,49.227,0,0,0,10.7,25.683,54.042,54.042,0,0,0,14.447,12.307A41.735,41.735,0,0,1,399.6,117.716Zm80.261,46.016a46.551,46.551,0,0,1-20.868-16.052l-2.14-3.21A47.623,47.623,0,0,1,449.9,123.6a45.479,45.479,0,0,1,0-8.561,46.016,46.016,0,0,1,3.21-12.307,42.271,42.271,0,0,1,9.1-14.447,52.973,52.973,0,0,0-6.956,17.657,47.626,47.626,0,0,0-1.07,9.631,51.371,51.371,0,0,0,1.605,12.307,46.552,46.552,0,0,0,5.886,13.912,48.693,48.693,0,0,0,19.8,18.728,51.9,51.9,0,0,0,27.824,4.816,44.411,44.411,0,0,1-29.429-1.605ZM171.123,575.738ZM703.52,534c-36.92,2.14-73.3,3.21-110.225,3.21h-35.85a29.965,29.965,0,0,0,10.166-6.421H593.3c36.385.535,73.3,1.605,110.225,3.211Zm-13.912-59.393L566.541,478.89l2.14,2.14a27.289,27.289,0,0,1,5.886,14.982,24.074,24.074,0,0,1-.535,7.491h0a35.85,35.85,0,0,0-10.7-18.192,25.684,25.684,0,0,0-34.245,0l-1.605,1.605a33.707,33.707,0,0,0-5.351,6.956l-1.07,2.675a40.662,40.662,0,0,0-2.675,6.421,21.4,21.4,0,0,1-.535-4.281,24.61,24.61,0,0,1,0-5.351h-2.14a12.306,12.306,0,0,0-9.631,1.605,13.912,13.912,0,0,0-3.21,19.263A16.052,16.052,0,0,1,503.4,491.2a18.192,18.192,0,0,1,12.307-4.816h4.281l3.21-5.351a28.894,28.894,0,0,1,23.008-11.236h2.675Zm-47.621-39.06-107.549,4.816-8.026,26.219v-35.85h4.816Zm-19.8-153.566a11.236,11.236,0,0,0,1.07,12.842,8.026,8.026,0,0,0,11.236,1.07,69.563,69.563,0,0,1,6.956,13.377,10.7,10.7,0,0,0-4.816,11.772,9.1,9.1,0,0,0,9.1,7.491,75.973,75.973,0,0,1,0,15.517,9.1,9.1,0,0,0-9.1,7.491,10.7,10.7,0,0,0,4.816,11.772,70.62,70.62,0,0,1-6.956,13.377,8.026,8.026,0,0,0-11.236,1.07,11.237,11.237,0,0,0-1.07,12.842,57.79,57.79,0,0,1-11.772,7.491,8.561,8.561,0,0,0-10.166-5.351,10.166,10.166,0,0,0-6.421,10.7,51.9,51.9,0,0,1-13.377,0,10.166,10.166,0,0,0-6.421-10.7,8.561,8.561,0,0,0-10.167,5.351,58.326,58.326,0,0,1-12.307-7.491,11.237,11.237,0,0,0-1.07-12.842,8.026,8.026,0,0,0-11.237-1.07,69.555,69.555,0,0,1-6.956-13.377,10.7,10.7,0,0,0,4.816-11.772,9.1,9.1,0,0,0-9.1-7.491,75.986,75.986,0,0,1,0-15.517,9.1,9.1,0,0,0,9.1-7.491,10.7,10.7,0,0,0-4.816-11.772,70.629,70.629,0,0,1,6.956-13.377,8.026,8.026,0,0,0,11.237-1.07,11.237,11.237,0,0,0,1.07-12.842,57.786,57.786,0,0,1,11.772-7.491,8.561,8.561,0,0,0,10.166,5.351,10.166,10.166,0,0,0,6.421-10.7,51.9,51.9,0,0,1,13.377,0,10.166,10.166,0,0,0,6.421,10.7,8.561,8.561,0,0,0,10.167-5.351A58.318,58.318,0,0,1,622.189,281.983Zm-108.62-9.1,3.211-3.21a76.514,76.514,0,0,1,28.894-17.122,72.235,72.235,0,0,1,63.139,8.561,81.331,81.331,0,0,0-59.393,1.07,75.98,75.98,0,0,0-39.6,40.665,90.962,90.962,0,0,0-3.746,57.788,99.524,99.524,0,0,0,32.1,51.367,84.006,84.006,0,0,1-42.271-48.157,92.031,92.031,0,0,1-1.07-58.323L281.883,425.917Zm-37.455,83.471-33.174,4.816L343.951,407.19l95.243-55.112h2.14ZM289.909,404.515l2.14-33.174,2.14,34.245v1.605h-1.07l-16.587,8.026Zm-6.956,199.047h-1.605a15.516,15.516,0,0,1-6.421-5.886,43.878,43.878,0,0,1-5.351-10.166,78.121,78.121,0,0,1-3.746-19.263h9.631l1.605,17.657a75.445,75.445,0,0,0,2.14,10.166c1.07,3.21,2.14,6.956,5.886,8.026Zm-3.21-25.684a88.814,88.814,0,0,1-.535-10.166h3.21l1.605,9.631a170.685,170.685,0,0,0,3.746,20.333,42.806,42.806,0,0,1-8.026-19.263Zm41.2,31.034-1.605-1.605-3.746-4.281a55.648,55.648,0,0,1-5.886-12.842,98.457,98.457,0,0,1-4.28-22.473h9.631c.535,6.956,1.07,13.912,2.14,20.868a81.863,81.863,0,0,0,3.21,12.842,24.078,24.078,0,0,0,3.21,6.956,8.562,8.562,0,0,0,4.281,3.211,8.562,8.562,0,0,1-6.956-2.14Zm0-30.5c-.535-3.745-.535-6.956-1.07-10.7h3.21c.535,3.21,1.07,6.956,1.605,10.166a197.447,197.447,0,0,0,4.816,24.613,57.253,57.253,0,0,1-8.561-23.543Zm50.3,35.315-1.605-1.605a57.788,57.788,0,0,1-9.1-15.517,110.225,110.225,0,0,1-6.956-28.894h9.631a170.166,170.166,0,0,0,4.281,26.754,71.17,71.17,0,0,0,5.886,15.517l3.211,4.816a14.982,14.982,0,0,0,9.1,5.886,17.123,17.123,0,0,1-13.912-6.421Zm4.816-14.447a95.772,95.772,0,0,1-5.351-16.587,126.3,126.3,0,0,1-2.14-14.982h3.21a106.833,106.833,0,0,0,2.675,13.912,134.3,134.3,0,0,0,4.281,16.052,74.911,74.911,0,0,0,6.956,15.517,44.409,44.409,0,0,1-9.1-13.912Zm16.052-93.638-29.429,24.078-9.1,6.421L336.46,550.054l16.587-1.07h.535l9.1-9.1v8.561l16.587-1.07-1.07,10.7H255.665V553.8H265.3a84.545,84.545,0,0,1,1.605-11.237,57.252,57.252,0,0,1,8.026-20.868c-.535,7.491-.535,14.447-.535,21.938v9.631l31.034-1.605a114.5,114.5,0,0,1,1.605-17.122,73.306,73.306,0,0,1,9.1-26.218,242.391,242.391,0,0,0-2.14,27.289q0,8.026,0,15.517h5.886l34.78-22.473h0a88.288,88.288,0,0,1,11.772-32.639,178.727,178.727,0,0,0-4.281,28.359l43.341-28.359Zm-44.946-34.78-40.13,16.052-39.6,16.052L236.4,531.327l-5.351,4.816v-7.491c0-18.192.535-36.385.535-54.577s1.07-36.385,1.605-54.577c1.07,18.192,2.14,36.385,2.14,54.577s1.07,31.569,1.07,47.621l25.683-24.078h1.07l40.13-15.517,41.736-16.587c27.289-10.166,54.042-19.8,81.331-28.894C400.669,448.391,373.916,459.627,347.162,470.863ZM421,619.614a111.825,111.825,0,0,0,4.281-19.263H430.1a44.946,44.946,0,0,0,6.956,20.868Zm34.245,5.886-1.07-1.605a53.513,53.513,0,0,1-6.421-12.842,101.664,101.664,0,0,1,0-63.674,52.439,52.439,0,0,1,7.491-14.447,16.052,16.052,0,0,1,13.912-7.491,16.052,16.052,0,0,0-10.166,10.166,64.205,64.205,0,0,0-4.281,13.912,162.661,162.661,0,0,0,0,59.393,65.818,65.818,0,0,0,4.281,13.912l1.07,1.605a14.447,14.447,0,0,0,9.1,8.561,16.053,16.053,0,0,1-13.377-7.491Zm14.447.535a46.018,46.018,0,0,1-10.166-21.4,68.491,68.491,0,0,1-.535-24.613c1.605,8.026,2.14,16.052,4.281,24.078a102.2,102.2,0,0,0,6.956,22.473h0Zm9.1-188.345a59.392,59.392,0,0,0-5.886,19.8,82.935,82.935,0,0,0,.535,21.938,47.086,47.086,0,0,1-1.605-46.016h.535l-34.245,13.377a29.964,29.964,0,0,0-14.447,18.728,54.576,54.576,0,0,0-1.605,12.842,61,61,0,0,0,1.07,13.377,61.536,61.536,0,0,1-3.21-13.377,49.232,49.232,0,0,1,0-13.912,32.64,32.64,0,0,1,14.447-24.078h.535c16.052-7.491,32.639-14.447,49.227-20.868l6.421-2.675h.535a20.333,20.333,0,0,1,21.4,8.561,21.938,21.938,0,0,0-19.8-2.14,29.43,29.43,0,0,0-13.377,14.447Zm3.745,98.988H479.86v-2.14c.535-9.631.535-19.263,1.07-28.894s.535-19.263,1.605-28.894q.8,14.447,1.605,28.894c.535,9.631.535,17.657,1.07,26.754h40.665a29.965,29.965,0,0,0,9.631,6.421ZM717.967,659.744l-5.886,10.166-1.07,2.14-2.14,3.745-4.281-1.07-65.279-14.447L501.8,630.315l10.7,1.605h0l2.14-82.936,6.421,84.006h.535l17.122,2.675V634.6l-2.675-86.682,11.237,87.752v1.07h.535l17.122,2.675v-1.605l-7.491-90.962L573.5,638.876v2.14l18.728,2.675v-1.605l-13.377-94.708,21.938,95.778v2.675l17.657,2.675v-2.675l-17.657-98.988L627.54,646.9v3.21l17.122,2.675v-3.21L622.724,546.309l31.034,104.339,1.07,3.21,17.122,2.675-1.07-3.21L644.127,546.309l35.85,108.62,1.07,3.745,17.122,2.675L697.1,657.6,665.53,546.309l40.665,112.9h.535l9.631-10.166-32.1-103.269,38.525,96.313,8.561-9.1v-1.605L703.52,545.239,738.3,625.5h.535l1.605-2.14Z" transform="translate(0.1)"/><path class="d" d="M569.87,215.474c-61-13.912-122.532-26.219-184.065-39.06L267.554,153.406h-4.281l-55.112-10.166-5.351-1.07h-2.14l-35.315-6.421-4.816-1.07-52.437-9.1L15,110.6l92.032,20.868L199.065,150.2l184.065,37.99,184.6,36.385L660.3,242.228l92.568,17.122c-30.5-8.026-61-15.517-91.5-23.008Z" transform="translate(65.796 481.19)"/></g></g></g></svg>