<svg xmlns="http://www.w3.org/2000/svg" xmlns:xlink="http://www.w3.org/1999/xlink" viewBox="0 0 300 164"><defs><style>.a{fill:#fff;}.b{opacity:0.095;clip-path:url(#a);}</style><clipPath id="a"><rect class="a" width="300" height="164" transform="translate(0 60)"/></clipPath></defs><g class="b" transform="translate(0 -60)"><g transform="translate(-25.104 71.057)"><path class="a" d="M307.075,129.7l-36.023-8.859a118.908,118.908,0,0,0-8.311-19.785c5.409-9,16.775-27.952,16.775-27.952a9.2,9.2,0,0,0-1.384-11.24l-26.02-26.02a9.175,9.175,0,0,0-11.24-1.384l-28,16.775A118.528,118.528,0,0,0,193.206,43L184.347,6.973A9.2,9.2,0,0,0,175.425,0h-36.8A9.189,9.189,0,0,0,129.7,6.972s-6.137,25.142-8.85,36.014a118.118,118.118,0,0,0-20.881,8.9L70.938,34.46A9.226,9.226,0,0,0,59.7,35.844L33.678,61.864A9.2,9.2,0,0,0,32.294,73.1l17.952,29.983A118.562,118.562,0,0,0,43,120.814L6.973,129.7A9.2,9.2,0,0,0,0,138.622v36.8a9.189,9.189,0,0,0,6.972,8.922L43,193.206a118.672,118.672,0,0,0,8.464,20.117L35.4,240.1a9.2,9.2,0,0,0,1.384,11.24l26.021,26.02a9.236,9.236,0,0,0,11.24,1.384s18.015-10.8,26.838-16.083a118.538,118.538,0,0,0,19.965,8.4l8.85,36.014a9.187,9.187,0,0,0,8.922,6.973h36.8a9.2,9.2,0,0,0,8.922-6.972l8.85-36.014a116.868,116.868,0,0,0,20.414-8.671c9.066,5.436,27.26,16.353,27.26,16.353a9.2,9.2,0,0,0,11.24-1.384l26.02-26.02a9.2,9.2,0,0,0,1.384-11.24l-16.541-27.557a117.827,117.827,0,0,0,8.077-19.335l36.023-8.859a9.2,9.2,0,0,0,6.973-8.922v-36.8A9.2,9.2,0,0,0,307.075,129.7ZM157.023,221.428a64.4,64.4,0,1,1,64.4-64.4A64.482,64.482,0,0,1,157.023,221.428Z"/></g></g></svg>