<svg xmlns="http://www.w3.org/2000/svg" viewBox="0 0 346.662 74.39"><defs><style>.a{fill:#00d3cc;}</style></defs><g transform="translate(173.331 37.195)"><g transform="translate(-173.331 -37.195)"><path class="a" d="M511.762,160.832a.634.634,0,0,0-.585-.412h-.824a.634.634,0,0,0-.585.412l-5.179,14.347a.306.306,0,0,0,.282.412h.845a.634.634,0,0,0,.585-.412l1.452-4.248h5.981l1.474,4.248a.634.634,0,0,0,.585.412h.867a.307.307,0,0,0,.282-.412Zm-3.489,8.6,2.449-7.13,2.493,7.13Z" transform="translate(-319.247 -101.503)"/><path class="a" d="M564.415,166.726c-2.081-.2-3.663-.672-3.663-2.861,0-1.56.975-2.753,3.251-2.753a3.1,3.1,0,0,1,3.381,3.122.371.371,0,0,0,.39.412h.867a.381.381,0,0,0,.391-.412c0-2.362-1.582-4.638-5.028-4.638-3.381,0-4.9,1.755-4.9,4.139v.453c0,2.948,2.449,3.836,5.05,4.075,2.124.195,3.554.845,3.554,2.665,0,1.756-1.127,2.926-3.489,2.926a3.493,3.493,0,0,1-3.771-3.1.37.37,0,0,0-.39-.412h-.888a.381.381,0,0,0-.39.412c0,2.514,1.994,4.616,5.44,4.616,3.4,0,5.136-1.69,5.136-4.226V170.6C569.356,167.766,566.8,166.944,564.415,166.726Z" transform="translate(-353.545 -100.983)"/><path class="a" d="M599.241,160.42H589.6a.434.434,0,0,0-.434.433v.628a.435.435,0,0,0,.434.434h4.009v13.242a.434.434,0,0,0,.433.433h.758a.435.435,0,0,0,.433-.433V161.915h4.009a.435.435,0,0,0,.434-.434v-.628A.434.434,0,0,0,599.241,160.42Z" transform="translate(-372.77 -101.503)"/><path class="a" d="M630.427,174.1h-6.892V169h5.548a.435.435,0,0,0,.434-.434v-.628a.434.434,0,0,0-.434-.433h-5.548v-5.57h6.719a.435.435,0,0,0,.433-.433v-.65a.434.434,0,0,0-.433-.433h-7.911a.434.434,0,0,0-.434.433v14.3a.435.435,0,0,0,.434.433h8.084a.435.435,0,0,0,.434-.433v-.629A.435.435,0,0,0,630.427,174.1Z" transform="translate(-393.487 -101.503)"/><path class="a" d="M660.457,174.1h-6.892V169h5.548a.435.435,0,0,0,.433-.434v-.628a.434.434,0,0,0-.433-.433h-5.548v-5.57h6.719a.435.435,0,0,0,.433-.433v-.65a.435.435,0,0,0-.433-.433h-7.91a.435.435,0,0,0-.434.433v14.3a.435.435,0,0,0,.434.433h8.084a.435.435,0,0,0,.434-.433v-.629A.435.435,0,0,0,660.457,174.1Z" transform="translate(-412.488 -101.503)"/><path class="a" d="M696.121,160.42h-1.04a.758.758,0,0,0-.65.39l-5.136,9.146-5.2-9.146a.758.758,0,0,0-.65-.39H682.4a.434.434,0,0,0-.434.433v14.3a.435.435,0,0,0,.434.433h.758a.435.435,0,0,0,.433-.433l-.065-12.268,4.658,8.15a.757.757,0,0,0,.65.39h.824a.757.757,0,0,0,.65-.39l4.681-8.191-.065,12.31a.435.435,0,0,0,.433.433h.76a.435.435,0,0,0,.433-.433V160.853A.434.434,0,0,0,696.121,160.42Z" transform="translate(-431.487 -101.503)"/><path class="a" d="M762.056,160.42h-.845a.574.574,0,0,0-.542.433l-3.576,12.852-3.338-12.852a.573.573,0,0,0-.542-.433h-1a.574.574,0,0,0-.542.433l-3.316,12.852-3.619-12.852a.619.619,0,0,0-.563-.433h-.866a.331.331,0,0,0-.3.433l4.334,14.3a.6.6,0,0,0,.563.433h.955a.573.573,0,0,0,.542-.433l3.273-12.7,3.294,12.7a.573.573,0,0,0,.542.433h.955a.6.6,0,0,0,.563-.433l4.334-14.3a.33.33,0,0,0-.305-.433Z" transform="translate(-470.095 -101.503)"/><path class="a" d="M800.031,160.832a.634.634,0,0,0-.585-.412h-.823a.634.634,0,0,0-.585.412l-5.18,14.346a.306.306,0,0,0,.282.412h.845a.634.634,0,0,0,.585-.412l1.452-4.248H802l1.473,4.248a.633.633,0,0,0,.585.412h.867a.307.307,0,0,0,.282-.412Zm-3.489,8.6,2.449-7.13,2.492,7.13Z" transform="translate(-501.635 -101.503)"/><path class="a" d="M839.645,174.1h-6.957V160.853a.435.435,0,0,0-.433-.433H831.5a.434.434,0,0,0-.434.433v14.3a.435.435,0,0,0,.434.433h8.149a.435.435,0,0,0,.434-.433v-.629A.435.435,0,0,0,839.645,174.1Z" transform="translate(-525.82 -101.503)"/><path class="a" d="M868.316,174.1H861.36V160.853a.434.434,0,0,0-.433-.433h-.759a.435.435,0,0,0-.434.433v14.3a.435.435,0,0,0,.434.433h8.148a.435.435,0,0,0,.434-.433v-.629A.435.435,0,0,0,868.316,174.1Z" transform="translate(-543.96 -101.503)"/><path class="a" d="M896.928,174.1h-6.892V169h5.548a.434.434,0,0,0,.433-.434v-.628a.434.434,0,0,0-.433-.433h-5.548v-5.57h6.719a.435.435,0,0,0,.433-.433v-.65a.435.435,0,0,0-.433-.433h-7.911a.435.435,0,0,0-.434.433v14.3a.435.435,0,0,0,.434.433h8.084a.435.435,0,0,0,.434-.433v-.629A.435.435,0,0,0,896.928,174.1Z" transform="translate(-562.103 -101.503)"/><path class="a" d="M924.979,160.42h-9.644a.434.434,0,0,0-.434.433v.628a.435.435,0,0,0,.434.434h4.01v13.242a.435.435,0,0,0,.433.433h.758a.435.435,0,0,0,.433-.433V161.915h4.009a.435.435,0,0,0,.434-.434v-.628A.435.435,0,0,0,924.979,160.42Z" transform="translate(-578.864 -101.503)"/><path class="a" d="M127.99,31.72a19.664,19.664,0,0,0-1.554-1.241A20.712,20.712,0,0,0,120.9,27.6l-.066-.022A21.054,21.054,0,0,0,95.187,56.8l-1.216,1.377-17,19.3a8.032,8.032,0,0,0-1.392,8.4,7.951,7.951,0,0,0,2.112,2.946,8.036,8.036,0,0,0,11.346-.72c.04-.044.084-.092.121-.14h0a4.88,4.88,0,0,0,6.578-7.2c-.048-.033-.1-.07-.143-.107s-.077-.062-.11-.092c-.084-.073-.158-.151-.231-.228a3.017,3.017,0,0,1,4.22-4.3c.033.029.07.062.1.1l.022-.022a4.88,4.88,0,0,0,6.45-7.32l1.2-1.37a21.044,21.044,0,0,0,20.738-35.7ZM123.4,48.872a7.771,7.771,0,0,1-2.222,1.756,7.9,7.9,0,1,1,2.222-1.756Z" transform="translate(-47.431 -16.748)"/><path class="a" d="M31.869,41.42a4.875,4.875,0,0,0,3.14-6.031l1.73-.577a21.091,21.091,0,0,0,8.6,5.972,21.051,21.051,0,0,1,22.706-34.1,21.051,21.051,0,0,0-36.37,12.87l-1.745.577-24.414,8.1A8.038,8.038,0,1,0,10.58,43.484c.059-.018.118-.037.176-.059l0,0a4.88,4.88,0,0,0,9.307-2.9c-.026-.051-.048-.11-.07-.165a.723.723,0,0,1-.048-.132c-.037-.107-.062-.213-.088-.316a3.018,3.018,0,0,1,5.814-1.587c.015.044.029.092.04.136l.029-.007a4.88,4.88,0,0,0,6.123,2.96Z" transform="translate(-0.01 -0.014)"/><path class="a" d="M273.766,47.722l17.648-20.041a.854.854,0,0,0-.538-1.5h-5.623a4.376,4.376,0,0,0-3.171,1.555L269.1,43.953h-1.2L270.178,28.1a1.672,1.672,0,0,0-1.675-1.914h-4.428a2.191,2.191,0,0,0-2.154,1.914l-5.384,38.048a1.6,1.6,0,0,0,1.616,1.914h4.487a2.238,2.238,0,0,0,2.154-1.914l1.974-14h1.077l8.614,14.418a3.285,3.285,0,0,0,2.812,1.5h6.222a.985.985,0,0,0,.9-1.436Z" transform="translate(-162.306 -16.573)"/><path class="a" d="M377.113,26.184H355.935a2.191,2.191,0,0,0-2.154,1.914L348.4,66.147a1.6,1.6,0,0,0,1.616,1.914h21.657a2.178,2.178,0,0,0,2.094-1.914l.419-2.992a1.551,1.551,0,0,0-1.616-1.854H357.432l1.436-10.23h11.9a2.244,2.244,0,0,0,2.154-1.914l.419-2.932a1.6,1.6,0,0,0-1.616-1.914h-11.9L361.38,33h14.777a2.291,2.291,0,0,0,2.154-1.854l.417-3.051a1.6,1.6,0,0,0-1.616-1.915Z" transform="translate(-220.428 -16.571)"/><path class="a" d="M469.867,26.183h-4.846a3.382,3.382,0,0,0-2.812,1.735l-9.931,18.426-4.845-18.426a2.337,2.337,0,0,0-2.333-1.735h-5.086a1.329,1.329,0,0,0-1.316,1.675L446.956,53.7l-1.8,12.444a1.642,1.642,0,0,0,1.675,1.914h4.547a2.178,2.178,0,0,0,2.094-1.914l1.8-12.563,15.375-25.724A1,1,0,0,0,469.867,26.183Z" transform="translate(-277.525 -16.571)"/><path class="a" d="M614.363,68.064h4.606a2.227,2.227,0,0,0,2.094-1.914l2.094-14.957h12.623L633.686,66.15a1.63,1.63,0,0,0,1.616,1.914h4.547A2.191,2.191,0,0,0,642,66.15L647.386,28.1a1.63,1.63,0,0,0-1.616-1.914h-4.606a2.179,2.179,0,0,0-2.094,1.914L636.8,44.374H624.114L626.388,28.1a1.562,1.562,0,0,0-1.555-1.914h-4.547a2.191,2.191,0,0,0-2.154,1.914L612.748,66.15A1.6,1.6,0,0,0,614.363,68.064Z" transform="translate(-387.682 -16.575)"/><path class="a" d="M728.029,66.268a2.14,2.14,0,0,0,2.155,1.795h5.025a1.5,1.5,0,0,0,1.5-1.795l-7.54-38.288a2.387,2.387,0,0,0-2.333-1.795h-4.008a3.367,3.367,0,0,0-2.812,1.795L701.766,66.268a1.172,1.172,0,0,0,1.017,1.795h4.905a2.98,2.98,0,0,0,2.633-1.854l3.589-8.256h12.8ZM716.663,51.491l6.64-15.555L725.7,51.491Z" transform="translate(-443.917 -16.572)"/><path class="a" d="M819.145,26.184H814.6a2.191,2.191,0,0,0-2.154,1.914l-5.384,38.049a1.6,1.6,0,0,0,1.616,1.914h4.606a2.227,2.227,0,0,0,2.094-1.914L820.7,28.1a1.563,1.563,0,0,0-1.556-1.915Z" transform="translate(-510.625 -16.572)"/><path class="a" d="M880.841,26.185h-4.486a2.13,2.13,0,0,0-2.094,1.914l-3.291,24.887L861.7,27.86a2.736,2.736,0,0,0-2.513-1.675h-4.846a2.191,2.191,0,0,0-2.154,1.914L846.8,66.148a1.6,1.6,0,0,0,1.616,1.914H852.9a2.121,2.121,0,0,0,2.034-1.914l3.35-24.768,9.093,25.007a2.736,2.736,0,0,0,2.513,1.675h5.025a2.288,2.288,0,0,0,2.154-1.914L882.4,28.1a1.591,1.591,0,0,0-1.557-1.915Z" transform="translate(-535.769 -16.573)"/><path class="a" d="M519,59.4a20.941,20.941,0,0,0,24.721,6.8,1.359,1.359,0,0,0,.617-.511,4.224,4.224,0,0,0,.7-2.321l.754-5.787a1.268,1.268,0,0,0-2.075-1.132,12.482,12.482,0,1,1,2.183-16.873,1.273,1.273,0,0,0,2.308-.556l.969-7.447a1.312,1.312,0,0,0-.5-1.2A20.933,20.933,0,0,0,519,59.4Z" transform="translate(-325.724 -16.39)"/><ellipse class="a" cx="7.897" cy="7.897" rx="7.897" ry="7.897" transform="translate(202.307 22.732)"/></g></g></svg>