<svg xmlns="http://www.w3.org/2000/svg" xmlns:xlink="http://www.w3.org/1999/xlink" viewBox="0 0 200.001 200"><defs><style>.a{fill:url(#a);}</style><linearGradient id="a" x1="0.825" y1="0.115" x2="0.169" y2="0.85" gradientUnits="objectBoundingBox"><stop offset="0" stop-color="#b1b1b1"/><stop offset="1" stop-color="#2e2e2e"/></linearGradient></defs><g transform="translate(0.001)"><g transform="translate(-0.001 0)"><path class="a" d="M100,200a100.757,100.757,0,0,1-19.44-1.89l2.957-15A85.3,85.3,0,0,0,100,184.71h.052V200Zm16.578-16.911a84.268,84.268,0,0,0,15.875-4.8l5.865,14.092a99.726,99.726,0,0,1-18.764,5.693ZM44.5,183.2,53,170.483a84.69,84.69,0,0,0,14.639,7.826L61.79,192.437A99.957,99.957,0,0,1,44.5,183.2ZM147.1,170.431a85.228,85.228,0,0,0,12.832-10.551l10.816,10.811a100.533,100.533,0,0,1-15.138,12.443ZM16.9,155.658l12.7-8.532a85.484,85.484,0,0,0,10.557,12.813l-10.8,10.831A100.7,100.7,0,0,1,16.9,155.658Zm153.556-8.615a84.641,84.641,0,0,0,7.832-14.627l14.144,5.846a99.98,99.98,0,0,1-9.251,17.285Zm-79.164-4.511a12.854,12.854,0,0,1,0-17.679,11.8,11.8,0,0,1,8.777-3.587,11.972,11.972,0,0,1,8.905,3.587,12.852,12.852,0,0,1,0,17.679,11.947,11.947,0,0,1-8.9,3.587A11.819,11.819,0,0,1,91.292,142.532ZM1.936,119.608l14.985-2.982A84.278,84.278,0,0,0,21.758,132.5L7.639,138.37A99.6,99.6,0,0,1,1.936,119.608ZM183.1,116.529A85.281,85.281,0,0,0,184.71,100v-.18L200,99.755V100a100.628,100.628,0,0,1-1.918,19.5Zm-83.263-1.037a6.479,6.479,0,0,1-5.2-2.178,9.18,9.18,0,0,1-1.859-6.15,20.067,20.067,0,0,1,2.306-10.058,42.079,42.079,0,0,1,6.406-8.257,41.843,41.843,0,0,0,4.419-5.5,9.327,9.327,0,0,0,1.474-5.122,5.484,5.484,0,0,0-2.052-4.487,8.7,8.7,0,0,0-5.636-1.664,16.4,16.4,0,0,0-5.856,1.077,46.239,46.239,0,0,0-6.468,3.137l-3.076,1.529q-4.339,2.446-7.033,2.446a6.792,6.792,0,0,1-5.443-2.752,10.307,10.307,0,0,1-2.242-6.728,9.411,9.411,0,0,1,.96-4.484,11.092,11.092,0,0,1,3.14-3.459,45.683,45.683,0,0,1,13.129-6.6,48.126,48.126,0,0,1,14.8-2.371,36.252,36.252,0,0,1,14.859,2.884,24.877,24.877,0,0,1,10.248,7.951,18.89,18.89,0,0,1,3.715,11.465,19.231,19.231,0,0,1-1.985,8.712,25.944,25.944,0,0,1-4.8,6.8q-2.823,2.813-7.3,6.789a59.251,59.251,0,0,0-6.44,5.939,11.975,11.975,0,0,0-2.884,5.2,6.791,6.791,0,0,1-2.5,4.355A7.416,7.416,0,0,1,100,115.494ZM0,100.107V100A100.953,100.953,0,0,1,1.878,80.618l15.006,2.948A85.292,85.292,0,0,0,15.291,100v.107Zm178.205-32.7,14.113-5.887a99.632,99.632,0,0,1,5.728,18.752l-14.984,3A84.145,84.145,0,0,0,178.205,67.41ZM7.538,61.844A100.07,100.07,0,0,1,16.771,44.55l12.719,8.487a84.824,84.824,0,0,0-7.816,14.645ZM159.777,39.982l10.792-10.835a100.576,100.576,0,0,1,12.468,15.116l-12.7,8.532A85.2,85.2,0,0,0,159.777,39.982ZM29.19,29.391A100.755,100.755,0,0,1,44.309,16.93l8.527,12.694a85.53,85.53,0,0,0-12.82,10.563Zm103.082-7.74L138.1,7.517a100.116,100.116,0,0,1,17.3,9.223l-8.483,12.722A84.732,84.732,0,0,0,132.272,21.651ZM61.575,7.646a99.436,99.436,0,0,1,18.759-5.7L83.325,16.93a84.245,84.245,0,0,0-15.869,4.828ZM116.4,16.874h0Zm-.013,0A85.552,85.552,0,0,0,100,15.29h-.158V0H100a100.566,100.566,0,0,1,19.325,1.868l-2.939,15,.013,0Z"/></g></g></svg>