<svg xmlns="http://www.w3.org/2000/svg" xmlns:xlink="http://www.w3.org/1999/xlink" viewBox="0 0 169.801 178.466"><defs><style>.a{fill:url(#a);}</style><linearGradient id="a" x1="1.305" y1="0.34" x2="0.5" y2="1" gradientUnits="objectBoundingBox"><stop offset="0" stop-color="#3a6686"/><stop offset="1" stop-color="#080e13"/></linearGradient></defs><g transform="translate(0.005 -0.002)"><g transform="translate(-0.005 0.002)"><path class="a" d="M24.182,18.915c-.408,3.989-.771,7.83-1.133,11.66a41.27,41.27,0,0,0,2.833,20.012c2.448,6.119,5.53,11.9,8.283,17.859,5.5,11.932,11.162,23.8,16.363,35.853a90.155,90.155,0,0,1,4.261,14.312c1.031,4.181-.113,8.136-2.334,11.74a98.143,98.143,0,0,1-21.383,24.635,19.448,19.448,0,0,1-2.629,1.722c-.918.521-1.484.2-1.473-.873a7.071,7.071,0,0,1,.249-1.53c1.428-5.96,3.048-11.887,4.261-17.881a26.323,26.323,0,0,0-2.425-16.555c-5.8-12.465-11.74-24.93-17.6-37.394A177.261,177.261,0,0,1,1.134,56.117,23.3,23.3,0,0,1,4.3,35.437,74.392,74.392,0,0,1,20.25,18.371,14.844,14.844,0,0,1,22.3,17.046c1.428-.748,1.915-.442,1.915,1.133v.7" transform="translate(0.005 2.215)"/><path class="a" d="M125.311,18.6c-.408,4-.782,7.83-1.133,11.66a41.27,41.27,0,0,0,2.867,20.012c2.459,6.074,5.53,11.91,8.283,17.87,5.5,11.921,11.139,23.8,16.351,35.842a90.9,90.9,0,0,1,4.272,14.312c1.02,4.181-.125,8.136-2.334,11.751a97.939,97.939,0,0,1-21.394,24.624,19.323,19.323,0,0,1-2.618,1.722c-.918.521-1.484.215-1.473-.861a6.528,6.528,0,0,1,.249-1.541c1.428-5.96,3.037-11.876,4.261-17.881a26.425,26.425,0,0,0-2.425-16.555c-5.8-12.465-11.74-24.93-17.6-37.338A174.969,174.969,0,0,1,102.263,55.8a23.309,23.309,0,0,1,3.184-20.669,73.973,73.973,0,0,1,15.932-17.065,13.348,13.348,0,0,1,2.051-1.3c1.428-.737,1.9-.442,1.9,1.133v.691" transform="translate(13.473 2.179)"/><path class="a" d="M74.167,2.266c-.487,4.771-1,12.771-1.552,17.53-.873,7.57,1.36,14.867,3.4,22.142,2.1,7.5,5.949,14.221,9.213,21.213,8.011,17.19,16.057,34.369,23.8,51.683,2.72,6.085,2.958,8.725,3.853,15.411.623,4.646-1.609,11.978-3.955,15.932-7.468,12.6-15.6,20.907-26.947,30.176a16.317,16.317,0,0,1-2.924,1.847c-1.133.589-1.9.2-1.881-1.133a8.951,8.951,0,0,1,.317-1.96c1.824-7.49,4.317-11.468,5.9-19s0-16.589-3.082-23.354C74.994,121.135,69.441,109.633,64,98.075,58.008,85.3,51.651,72.692,47.084,59.3,45.271,53.915,43.447,48.5,43,42.788c-.249-3.4.657-9.881,2.266-12.9A86.256,86.256,0,0,1,70.45.77a2.267,2.267,0,0,1,.612-.329c.442-.147.907-.272,1.36-.4a1.292,1.292,0,0,1,1.6,1.009,6.244,6.244,0,0,1,.147,1.212" transform="translate(5.727 -0.002)"/></g></g></svg>