<svg xmlns="http://www.w3.org/2000/svg" viewBox="0 0 500.001 500.042"><defs><style>.a{opacity:1;}.b{fill:#edf0f2;}</style></defs><g class="a" transform="translate(0.018 0.018)"><path class="b" d="M155.63,215.25,312.82,108.8A154.54,154.54,0,0,0,180.93,388.24l69.65-102.87Z"/><path class="b" d="M320.75,112.61,251.2,214l94.32,71.36L188.61,391.82A154.54,154.54,0,0,0,320.75,112.61Z"/><path class="b" d="M498.35,221.61a37.49,37.49,0,0,1-19.08-71.19,248.34,248.34,0,0,0-28.35-49.21,37.49,37.49,0,0,1-52.17-52.07,251.77,251.77,0,0,0-49.18-28.39A37.48,37.48,0,0,1,278.4,1.61a248.531,248.531,0,0,0-56.79,0,37.49,37.49,0,0,1-71.2,19.08,248.539,248.539,0,0,0-49.2,28.35,37.49,37.49,0,0,1-52.07,52.17,251.271,251.271,0,0,0-28.39,49.18A37.48,37.48,0,0,1,1.61,221.6a248.609,248.609,0,0,0,0,56.8,37.49,37.49,0,0,1,19.08,71.19,248.089,248.089,0,0,0,28.36,49.2,37.48,37.48,0,0,1,52.16,52.07,251.27,251.27,0,0,0,49.18,28.39,37.49,37.49,0,0,1,71.18,19.14,247.31,247.31,0,0,0,56.78,0,37.49,37.49,0,0,1,71.19-19.08,247.849,247.849,0,0,0,49.21-28.35,37.49,37.49,0,0,1,52.07-52.17,251.476,251.476,0,0,0,28.39-49.18,37.48,37.48,0,0,1,19.14-71.17,248,248,0,0,0,0-56.83ZM250,437.46C146.47,437.46,62.54,353.53,62.54,250S146.47,62.54,250,62.54,437.46,146.47,437.46,250,353.53,437.46,250,437.46Z"/></g></svg>