<svg xmlns="http://www.w3.org/2000/svg" viewBox="0 0 300 202.882"><defs><style>.a{opacity:0.652;}.b{fill:#fff;}</style></defs><g transform="translate(-533 -139.54)"><g class="a" transform="translate(533 139.55)"><g transform="translate(0 -0.01)"><path class="b" d="M188.681,84.95l47.158-31.939a46.363,46.363,0,0,0-39.569,83.834l20.9-30.858Z" transform="translate(-67.422 -20.366)"/><path class="b" d="M258.115,57.83,237.247,88.25l28.3,21.411L218.47,141.594A46.363,46.363,0,0,0,258.115,57.83Z" transform="translate(-86.344 -22.376)"/><path class="b" d="M232.087,143.782a79.91,79.91,0,0,0,15.55-8.506,10.824,10.824,0,0,1,1.38-14.309,12.322,12.322,0,0,1,15.069-1.342,74.872,74.872,0,0,0,8.978-14.757,11.065,11.065,0,0,1-6.258-13.038,11.813,11.813,0,0,1,12.307-8.292,70.757,70.757,0,0,0,0-17.036,11.814,11.814,0,0,1-12.358-8.3,11.07,11.07,0,0,1,6.334-13.055,74.138,74.138,0,0,0-8.978-14.769,12.322,12.322,0,0,1-15.072-1.31,10.824,10.824,0,0,1-1.413-14.306,80.566,80.566,0,0,0-15.544-8.518,12.062,12.062,0,0,1-13.769,6A11.3,11.3,0,0,1,209.589.481a82.292,82.292,0,0,0-17.944,0A11.307,11.307,0,0,1,182.9,12.213,12.06,12.06,0,0,1,169.147,6.2a79.651,79.651,0,0,0-15.55,8.512A10.824,10.824,0,0,1,152.24,29.05a12.322,12.322,0,0,1-15.1,1.325,74.634,74.634,0,0,0-8.972,14.751,11.069,11.069,0,0,1,6.319,13.059,11.815,11.815,0,0,1-12.362,8.294,70.465,70.465,0,0,0,0,17.036,11.814,11.814,0,0,1,12.358,8.3,11.07,11.07,0,0,1-6.334,13.055,73.7,73.7,0,0,0,8.966,14.763,12.322,12.322,0,0,1,15.072,1.315,10.824,10.824,0,0,1,1.408,14.307,80.877,80.877,0,0,0,15.544,8.518,12.062,12.062,0,0,1,13.759-6,11.306,11.306,0,0,1,8.733,11.743,83,83,0,0,0,17.944,0,11.307,11.307,0,0,1,8.743-11.739,12.06,12.06,0,0,1,13.755,6.013Zm-31.47-12.543c-32.718,0-59.241-25.18-59.241-56.242S167.9,18.755,200.617,18.755,259.858,43.935,259.858,75s-26.528,56.249-59.247,56.242Z" transform="translate(-50.564 0.01)"/><path class="b" d="M18.04,301.845a32.277,32.277,0,0,0-5.918-1.823A16.872,16.872,0,0,1,7.25,298.34a2.874,2.874,0,0,1-1.408-2.576,3.628,3.628,0,0,1,1.618-3.137,7.6,7.6,0,0,1,4.4-1.128,11.019,11.019,0,0,1,3.873.584,14.079,14.079,0,0,1,3.254,1.823,6.08,6.08,0,0,0,.923.45,2.215,2.215,0,0,0,.754.123,1.513,1.513,0,0,0,1.209-.631,2.337,2.337,0,0,0,.514-1.5,2.3,2.3,0,0,0-.228-1.087,3.149,3.149,0,0,0-.759-.882,14.263,14.263,0,0,0-9.54-3.114A14.185,14.185,0,0,0,6.111,288.4a9.435,9.435,0,0,0-3.99,3.131,7.63,7.63,0,0,0-1.437,4.551,6.829,6.829,0,0,0,1.168,4.054,8.243,8.243,0,0,0,3.4,2.617,29.541,29.541,0,0,0,5.842,1.805,19.864,19.864,0,0,1,4.977,1.618,2.623,2.623,0,0,1,1.49,2.4,3.418,3.418,0,0,1-1.63,3.079,8.438,8.438,0,0,1-4.586,1.046,14.932,14.932,0,0,1-4.259-.584A12.338,12.338,0,0,1,3.4,310.264a3.353,3.353,0,0,0-1.683-.584,1.5,1.5,0,0,0-1.2.637,2.483,2.483,0,0,0,.426,3.459,13.116,13.116,0,0,0,4.569,2.273,20.635,20.635,0,0,0,5.959.859,14.915,14.915,0,0,0,5.877-1.087,9.213,9.213,0,0,0,3.973-3.032,7.431,7.431,0,0,0,1.414-4.481,6.134,6.134,0,0,0-1.209-3.891,8.763,8.763,0,0,0-3.482-2.57Z" transform="translate(0 -114.027)"/><path class="b" d="M63.52,287.92H43.33q-2.46,0-2.46,2.173t2.46,2.173h7.455v22.112a2.565,2.565,0,0,0,.713,1.9,2.629,2.629,0,0,0,1.945.719,2.471,2.471,0,0,0,2.623-2.623V292.267H63.52q2.454,0,2.454-2.173T63.52,287.92Z" transform="translate(-16.993 -114.298)"/><path class="b" d="M197.442,287.569a2.717,2.717,0,0,0-2.419,1.753l-9.055,17.334-9.09-17.322a2.764,2.764,0,0,0-2.5-1.753,2.378,2.378,0,0,0-1.823.719,2.676,2.676,0,0,0-.678,1.9v24.245a2.541,2.541,0,0,0,.613,1.805,2.329,2.329,0,0,0,4.014-1.782v-16.72l7.011,12.981a3.733,3.733,0,0,0,1.069,1.355,2.278,2.278,0,0,0,1.35.409,2.179,2.179,0,0,0,1.35-.432,4.09,4.09,0,0,0,1.069-1.332l6.964-13.168v16.872a2.541,2.541,0,0,0,.584,1.805,2.22,2.22,0,0,0,1.683.654,2.337,2.337,0,0,0,1.718-.654,2.436,2.436,0,0,0,.654-1.805V290.192a2.611,2.611,0,0,0-.7-1.9,2.436,2.436,0,0,0-1.817-.719Z" transform="translate(-68.419 -114.151)"/><path class="b" d="M312.882,287.568a2.337,2.337,0,0,0-1.753.719,2.647,2.647,0,0,0-.678,1.9v17.7l-14.909-19.372a2.3,2.3,0,0,0-1.963-.946,2.454,2.454,0,0,0-1.846.719,2.635,2.635,0,0,0-.7,1.9v24.04a2.787,2.787,0,0,0,.654,1.928,2.576,2.576,0,0,0,3.6,0,2.787,2.787,0,0,0,.654-1.928V296.5l14.927,19.454a2.337,2.337,0,0,0,2,.941,2.372,2.372,0,0,0,1.805-.736,2.7,2.7,0,0,0,.7-1.928v-24.04a2.647,2.647,0,0,0-.678-1.9A2.378,2.378,0,0,0,312.882,287.568Z" transform="translate(-115.927 -114.15)"/><path class="b" d="M364.66,300.927h-7.244a2.22,2.22,0,0,0-1.531.491,2.027,2.027,0,0,0,0,2.787,2.22,2.22,0,0,0,1.531.491h4.633v7.25a20.821,20.821,0,0,1-5.573.777q-9.347,0-9.347-10.65,0-5.194,2.273-7.84t6.736-2.646a11.339,11.339,0,0,1,3.505.514A13.122,13.122,0,0,1,363,293.882a5.061,5.061,0,0,0,.859.473,2.292,2.292,0,0,0,.818.14,1.484,1.484,0,0,0,1.168-.613,2.594,2.594,0,0,0,.263-2.582,3.214,3.214,0,0,0-.719-.9,14.138,14.138,0,0,0-9.458-3.114,15.266,15.266,0,0,0-7.536,1.753,12.216,12.216,0,0,0-4.937,5.124,16.861,16.861,0,0,0-1.753,7.881,17.082,17.082,0,0,0,1.753,7.969,11.866,11.866,0,0,0,5.018,5.094,16.13,16.13,0,0,0,7.741,1.753,28.321,28.321,0,0,0,4.177-.327,21.657,21.657,0,0,0,3.809-.9,3.593,3.593,0,0,0,2.01-1.274,5.258,5.258,0,0,0,.491-2.658v-8.769a1.951,1.951,0,0,0-.584-1.455A2.1,2.1,0,0,0,364.66,300.927Z" transform="translate(-136.093 -114.032)"/><path class="b" d="M397.37,287.566a2.471,2.471,0,0,0-2.623,2.623v24.04a2.641,2.641,0,0,0,.719,1.928,2.535,2.535,0,0,0,1.9.736,2.594,2.594,0,0,0,1.945-.736,2.641,2.641,0,0,0,.719-1.928V290.19a2.576,2.576,0,0,0-.719-1.9,2.629,2.629,0,0,0-1.945-.719Z" transform="translate(-157.694 -114.149)"/><path class="b" d="M436.321,287.568a2.337,2.337,0,0,0-1.782.719,2.676,2.676,0,0,0-.678,1.9v17.7l-14.909-19.372a2.29,2.29,0,0,0-1.963-.946,2.46,2.46,0,0,0-1.846.719,2.635,2.635,0,0,0-.7,1.9v24.04a2.787,2.787,0,0,0,.654,1.928,2.576,2.576,0,0,0,3.6,0,2.787,2.787,0,0,0,.654-1.928V296.5l14.95,19.454a2.594,2.594,0,0,0,3.809.2,2.675,2.675,0,0,0,.7-1.928v-24.04a2.67,2.67,0,0,0-.678-1.9,2.389,2.389,0,0,0-1.817-.719Z" transform="translate(-164.321 -114.151)"/><path class="b" d="M108.967,289.954a2.138,2.138,0,0,0-2.138-2.144H91.394a2.144,2.144,0,0,0-2.144,2.144,2.232,2.232,0,0,0,.041.4,4.918,4.918,0,0,0-.041.584v22.591a4.84,4.84,0,0,0,.041.584,2.244,2.244,0,0,0-.041.4,2.138,2.138,0,0,0,2.144,2.138h15.452a2.144,2.144,0,0,0,0-4.282H93.532V292.092h13.314a2.138,2.138,0,0,0,2.121-2.138Z" transform="translate(-35.577 -114.252)"/><circle class="b" cx="3.353" cy="3.353" r="3.353" transform="translate(61.831 184.541)"/><path class="b" d="M149.455,289.954a2.144,2.144,0,0,0-2.144-2.144H131.858a2.138,2.138,0,0,0-2.138,2.144,2.232,2.232,0,0,0,.041.4,4.919,4.919,0,0,0-.041.584v22.591a4.839,4.839,0,0,0,.041.584,2.245,2.245,0,0,0-.041.4,2.138,2.138,0,0,0,2.144,2.138h15.447a2.144,2.144,0,1,0,0-4.282H134V292.092h13.308a2.138,2.138,0,0,0,2.144-2.138Z" transform="translate(-51.708 -114.252)"/><circle class="b" cx="3.353" cy="3.353" r="3.353" transform="translate(86.137 184.541)"/><path class="b" d="M269.269,289.954a2.138,2.138,0,0,0-2.138-2.144H251.678a2.138,2.138,0,0,0-2.138,2.144,2.232,2.232,0,0,0,.035.4,4.927,4.927,0,0,0-.035.584v22.591a4.855,4.855,0,0,0,.035.584,2.248,2.248,0,0,0-.035.4,2.138,2.138,0,0,0,2.138,2.138h15.452a2.144,2.144,0,0,0,0-4.282H253.822V292.092h13.308A2.138,2.138,0,0,0,269.269,289.954Z" transform="translate(-99.472 -114.252)"/><circle class="b" cx="3.353" cy="3.353" r="3.353" transform="translate(158.094 184.541)"/><path class="b" d="M483.816,312.382H470.5v-20.29h13.314a2.144,2.144,0,0,0,0-4.282H468.364a2.144,2.144,0,0,0-2.144,2.144,2.232,2.232,0,0,0,.041.4,4.921,4.921,0,0,0-.041.584v22.591a4.833,4.833,0,0,0,.041.584,2.241,2.241,0,0,0-.041.4,2.138,2.138,0,0,0,2.144,2.138h15.452a2.144,2.144,0,0,0,0-4.282Z" transform="translate(-185.849 -114.252)"/><circle class="b" cx="3.353" cy="3.353" r="3.353" transform="translate(288.375 184.541)"/></g></g></g></svg>